<svg width="76" height="76" viewBox="0 0 76 76" fill="none" xmlns="http://www.w3.org/2000/svg">
<g clip-path="url(#clip0_178_13148)">
<path d="M38 75.5C58.7107 75.5 75.5 58.7107 75.5 38C75.5 17.2893 58.7107 0.5 38 0.5C17.2893 0.5 0.5 17.2893 0.5 38C0.5 58.7107 17.2893 75.5 38 75.5Z" fill="#68EE76"/>
<path d="M53.4009 26.9212C52.7813 26.3075 51.7768 26.3075 51.1571 26.9212L32.1494 45.7451L24.8432 38.5095C24.2236 37.8959 23.2192 37.896 22.5995 38.5095C21.9799 39.1231 21.9799 40.1178 22.5995 40.7315L31.0276 49.0779C31.647 49.6914 32.6522 49.691 33.2713 49.0779L53.4009 29.1431C54.0205 28.5296 54.0204 27.5348 53.4009 26.9212Z" fill="white" stroke="white" stroke-width="4.88889"/>
</g>
<defs>
<clipPath id="clip0_178_13148">
<rect width="75" height="75" fill="white" transform="translate(0.5 0.5)"/>
</clipPath>
</defs>
</svg>
